<svg version="1.1" id="Layer_1" xmlns="http://www.w3.org/2000/svg" xmlns:xlink="http://www.w3.org/1999/xlink" x="0px" y="0px"
	 width="100%" viewBox="0 0 512 512" enable-background="new 0 0 512 512" xml:space="preserve">
<path fill="#000000" opacity="1.000000" stroke="none" 
	d="
M230.000000,1.000000 
	C324.298431,1.000000 418.596832,1.000000 512.947632,1.000000 
	C512.947632,171.568573 512.947632,342.137146 512.947632,513.000000 
	C389.310852,513.000000 265.621460,513.000000 141.302948,512.625000 
	C141.171432,511.861176 141.617279,511.242310 142.174225,511.116974 
	C157.555405,507.654785 170.045258,499.615875 180.631943,487.991333 
	C192.805161,474.624756 199.296844,458.718689 199.754166,441.148254 
	C200.563660,410.048584 199.889374,378.910309 199.895050,347.336365 
	C199.969360,299.468903 199.996796,252.053299 199.991913,204.637680 
	C199.990601,191.829910 199.891388,179.022125 199.900696,165.735748 
	C199.990372,140.864548 200.016434,116.471962 200.508087,92.058937 
	C208.625519,92.025688 216.289703,91.745132 223.924774,92.096565 
	C228.808975,92.321365 230.125732,90.578850 230.093750,85.836189 
	C229.903091,57.558533 229.999771,29.278940 230.000000,1.000000 
M374.249023,63.317883 
	C367.506653,73.839867 360.729340,84.339676 354.028625,94.888107 
	C335.996582,123.274574 318.002716,151.685287 299.982269,180.079102 
	C292.321289,192.150085 284.066956,203.885178 277.066437,216.326675 
	C259.750977,247.100098 251.268112,279.950500 254.885727,315.574982 
	C256.254761,329.056519 259.829712,341.779785 265.511780,353.898865 
	C274.072815,372.158356 286.471191,387.420746 302.839874,399.343231 
	C324.336487,415.000824 348.204254,423.381287 375.899750,422.964417 
	C380.668182,422.647827 385.450226,422.466187 390.202423,421.988312 
	C402.506989,420.751068 414.260529,417.473053 425.463531,412.203979 
	C449.092407,401.090607 467.362885,384.373199 480.320648,361.534210 
	C490.286926,343.967896 495.336304,325.202850 495.848755,305.254578 
	C496.080414,296.236542 494.899841,287.154205 493.978180,278.140106 
	C491.773987,256.582581 484.737000,236.362198 473.759674,217.964355 
	C457.475891,190.672974 439.873840,164.168274 422.838379,137.325272 
	C413.881195,123.211281 405.016632,109.037704 395.958435,94.988922 
	C389.068695,84.303246 381.939606,73.771896 374.249023,63.317883 
z"/>
<path fill="#000000" opacity="1.000000" stroke="none" 
	d="
M107.000000,513.000000 
	C71.691223,513.000000 36.382446,513.000000 1.036834,513.000000 
	C1.036834,342.333344 1.036834,171.666672 1.036834,1.000000 
	C6.399797,1.000000 11.729445,1.000000 17.529327,1.468657 
	C17.999563,31.801329 17.999563,61.665344 17.999563,92.100395 
	C28.404692,92.100395 38.174812,92.100395 47.968395,92.561951 
	C48.050037,117.591736 48.108219,142.159973 48.089783,167.211823 
	C48.065250,182.389557 48.117332,197.083664 48.093925,212.258270 
	C48.068531,222.488098 48.118626,232.237411 48.090965,242.450531 
	C48.064377,252.610168 48.115540,262.306000 48.092022,272.464417 
	C48.067780,282.682068 48.118221,292.437103 48.097183,302.643860 
	C48.072529,317.824280 48.119350,332.553040 48.088882,347.726807 
	C48.007820,373.821960 47.930885,399.472412 48.046101,425.121979 
	C48.079456,432.547729 48.427429,439.990753 49.043606,447.391479 
	C50.471325,464.539337 58.236256,479.023834 69.878311,491.090271 
	C79.348030,500.905121 91.078590,507.774872 104.613548,511.048737 
	C105.513687,511.266510 106.209274,512.329895 107.000000,513.000000 
z"/>
<path fill="#FF4A4A" opacity="1.000000" stroke="none" 
	d="
M107.467606,513.000000 
	C106.209274,512.329895 105.513687,511.266510 104.613548,511.048737 
	C91.078590,507.774872 79.348030,500.905121 69.878311,491.090271 
	C58.236256,479.023834 50.471325,464.539337 49.043606,447.391479 
	C48.427429,439.990753 48.079456,432.547729 48.046101,425.121979 
	C47.930885,399.472412 48.007820,373.821960 48.546257,347.725098 
	C63.398415,347.267487 77.716103,347.297638 92.033348,347.232178 
	C102.674347,347.183533 113.314781,347.010864 123.994705,347.056824 
	C124.033936,347.220184 124.025826,347.556152 124.025948,347.989929 
	C124.017380,403.282501 124.008690,458.141235 124.000000,513.000000 
	C118.645073,513.000000 113.290138,513.000000 107.467606,513.000000 
z"/>
<path fill="#C40048" opacity="1.000000" stroke="none" 
	d="
M124.467606,513.000000 
	C124.008690,458.141235 124.017380,403.282501 124.474670,347.864807 
	C148.247925,347.295593 171.572586,347.274963 194.897202,347.297241 
	C196.543625,347.298828 198.189774,347.617157 199.836029,347.788177 
	C199.889374,378.910309 200.563660,410.048584 199.754166,441.148254 
	C199.296844,458.718689 192.805161,474.624756 180.631943,487.991333 
	C170.045258,499.615875 157.555405,507.654785 142.174225,511.116974 
	C141.617279,511.242310 141.171432,511.861176 140.836914,512.625000 
	C135.645065,513.000000 130.290146,513.000000 124.467606,513.000000 
z"/>
<path fill="#05303D" opacity="1.000000" stroke="none" 
	d="
M229.531342,1.000000 
	C229.999771,29.278940 229.903091,57.558533 230.093750,85.836189 
	C230.125732,90.578850 228.808975,92.321365 223.924774,92.096565 
	C216.289703,91.745132 208.625519,92.025688 200.130188,91.870804 
	C197.315033,91.555145 195.344528,91.297813 193.371536,91.277252 
	C181.921021,91.157928 170.469925,91.094345 159.015656,90.542519 
	C159.008194,60.382084 159.004089,30.691042 159.000000,1.000000 
	C182.354233,1.000000 205.708450,1.000000 229.531342,1.000000 
z"/>
<path fill="#0A789B" opacity="1.000000" stroke="none" 
	d="
M47.944935,92.100395 
	C38.174812,92.100395 28.404692,92.100395 17.999563,92.100395 
	C17.999563,61.665344 17.999563,31.801329 17.999783,1.468657 
	C41.354229,1.000000 64.708458,1.000000 88.529266,1.468654 
	C88.675354,31.629297 88.354858,61.321285 87.570885,91.112167 
	C76.651024,91.230820 66.194084,91.197823 55.738659,91.307602 
	C53.138260,91.334908 50.542713,91.823708 47.944935,92.100395 
z"/>
<path fill="#0A617D" opacity="1.000000" stroke="none" 
	d="
M88.034370,91.013275 
	C88.354858,61.321285 88.675354,31.629297 88.997925,1.468654 
	C100.354225,1.000000 111.708458,1.000000 123.531235,1.468657 
	C124.035088,31.629169 124.070396,61.321022 124.046700,91.155220 
	C123.987686,91.297562 123.983330,91.605103 123.534515,91.477203 
	C111.401932,91.237289 99.718147,91.125282 88.034370,91.013275 
z"/>
<path fill="#08475E" opacity="1.000000" stroke="none" 
	d="
M124.105713,91.012878 
	C124.070396,61.321022 124.035088,31.629169 123.999893,1.468657 
	C135.354233,1.000000 146.708450,1.000000 158.531342,1.000000 
	C159.004089,30.691042 159.008194,60.382084 158.552032,90.631638 
	C146.763077,91.131050 135.434402,91.071960 124.105713,91.012878 
z"/>
<path fill="#FF4A4A" opacity="1.000000" stroke="none" 
	d="
M374.977936,422.837555 
	C348.204254,423.381287 324.336487,415.000824 302.839874,399.343231 
	C286.471191,387.420746 274.072815,372.158356 265.511780,353.898865 
	C259.829712,341.779785 256.254761,329.056519 254.885727,315.574982 
	C251.268112,279.950500 259.750977,247.100098 277.066437,216.326675 
	C284.066956,203.885178 292.321289,192.150085 299.982269,180.079102 
	C318.002716,151.685287 335.996582,123.274574 354.028625,94.888107 
	C360.729340,84.339676 367.506653,73.839867 374.601501,63.702316 
	C374.963776,126.672005 374.973541,189.257263 374.524445,251.908295 
	C369.470856,251.974060 364.876099,251.974060 359.796021,251.974060 
	C359.796021,262.091949 359.796021,271.544891 359.642944,281.123901 
	C359.296753,281.433411 359.132477,281.639771 358.533661,281.942688 
	C349.046814,282.077789 340.023376,282.139343 330.738342,282.171295 
	C330.341888,282.427216 330.206970,282.712708 329.989746,283.460693 
	C329.907440,293.168671 329.907440,302.414185 329.907440,312.229675 
	C340.131622,312.229675 349.830536,312.229675 360.075073,312.229675 
	C360.075073,322.503937 360.075073,332.212341 360.075073,342.479797 
	C365.422272,342.479797 370.211975,342.479797 375.013855,342.918213 
	C375.009979,369.850281 374.993958,396.343903 374.977936,422.837555 
z"/>
<path fill="#C40048" opacity="1.000000" stroke="none" 
	d="
M375.438843,422.901001 
	C374.993958,396.343903 375.009979,369.850281 375.055908,342.812622 
	C375.085815,342.268585 375.080566,342.041290 375.534485,342.126099 
	C380.564697,342.210907 385.140991,342.210907 390.217957,342.210907 
	C390.217957,331.834686 390.217957,322.120544 390.217957,311.904724 
	C400.442383,311.904724 410.153046,311.904724 419.887024,311.904724 
	C419.887024,301.921112 419.887024,292.462677 419.908813,282.739105 
	C419.621735,282.382996 419.312805,282.291992 418.538818,282.137817 
	C408.827332,282.074646 399.580933,282.074646 389.872375,282.074646 
	C389.872375,271.735748 389.872375,262.015991 389.872375,252.131485 
	C384.609985,252.131485 379.817963,252.131485 375.037872,252.055908 
	C375.049835,251.980316 374.983276,251.842514 374.983276,251.842514 
	C374.973541,189.257263 374.963776,126.672005 374.935516,63.629322 
	C381.939606,73.771896 389.068695,84.303246 395.958435,94.988922 
	C405.016632,109.037704 413.881195,123.211281 422.838379,137.325272 
	C439.873840,164.168274 457.475891,190.672974 473.759674,217.964355 
	C484.737000,236.362198 491.773987,256.582581 493.978180,278.140106 
	C494.899841,287.154205 496.080414,296.236542 495.848755,305.254578 
	C495.336304,325.202850 490.286926,343.967896 480.320648,361.534210 
	C467.362885,384.373199 449.092407,401.090607 425.463531,412.203979 
	C414.260529,417.473053 402.506989,420.751068 390.202423,421.988312 
	C385.450226,422.466187 380.668182,422.647827 375.438843,422.901001 
z"/>
<path fill="#DCEAEC" opacity="1.000000" stroke="none" 
	d="
M199.895050,347.336365 
	C198.189774,347.617157 196.543625,347.298828 194.897202,347.297241 
	C171.572586,347.274963 148.247925,347.295593 124.474548,347.431000 
	C124.025826,347.556152 124.033936,347.220184 124.002266,346.593811 
	C123.987007,311.341797 124.003418,276.716125 124.478516,242.024200 
	C129.507507,241.957932 134.077789,241.957932 138.666901,241.957932 
	C138.666901,231.640808 138.666901,221.977417 138.666901,211.809448 
	C133.547485,211.809448 128.774734,211.809448 124.000626,211.352722 
	C123.984558,196.299911 123.969849,181.703827 123.993942,166.946320 
	C124.032753,166.784927 124.017532,166.453278 124.470459,166.574402 
	C148.248840,166.705490 171.574310,166.725800 194.899734,166.703323 
	C196.545670,166.701752 198.191330,166.384705 199.837112,166.214355 
	C199.891388,179.022125 199.990601,191.829910 199.991913,204.637680 
	C199.996796,252.053299 199.969360,299.468903 199.895050,347.336365 
z"/>
<path fill="#C40048" opacity="1.000000" stroke="none" 
	d="
M199.900696,165.735748 
	C198.191330,166.384705 196.545670,166.701752 194.899734,166.703323 
	C171.574310,166.725800 148.248840,166.705490 124.472389,166.140442 
	C124.008705,140.925278 123.996017,116.265190 123.983330,91.605103 
	C123.983330,91.605103 123.987686,91.297562 124.046700,91.155220 
	C135.434402,91.071960 146.763077,91.131050 158.555389,91.101028 
	C170.469925,91.094345 181.921021,91.157928 193.371536,91.277252 
	C195.344528,91.297813 197.315033,91.555145 199.664612,91.891235 
	C200.016434,116.471962 199.990372,140.864548 199.900696,165.735748 
z"/>
<path fill="#F7F9FA" opacity="1.000000" stroke="none" 
	d="
M124.019821,242.090469 
	C124.003418,276.716125 123.987007,311.341797 123.963028,346.430481 
	C113.314781,347.010864 102.674347,347.183533 92.033348,347.232178 
	C77.716103,347.297638 63.398415,347.267487 48.623547,347.280090 
	C48.119350,332.553040 48.072529,317.824280 48.323242,302.609070 
	C48.620777,302.122559 49.040577,301.941345 49.502541,302.007385 
	C69.310623,302.016235 88.656746,301.959076 108.261841,301.913208 
	C108.614899,301.621124 108.708977,301.317719 108.867218,300.548645 
	C108.882149,291.052979 108.832924,282.022980 108.808441,272.752869 
	C108.654976,272.153198 108.382011,272.053772 107.549988,272.140015 
	C88.055367,272.104980 69.025032,272.144440 49.767113,272.120728 
	C49.539528,272.057556 49.074951,272.143005 48.851349,272.085449 
	C48.627743,272.027924 48.166706,272.001831 48.166706,272.001831 
	C48.115540,262.306000 48.064377,252.610168 48.328041,242.437302 
	C48.642872,241.960266 49.099876,241.831009 49.559196,241.886200 
	C74.347626,241.897430 98.676735,241.853470 123.276375,241.865280 
	C123.724236,241.871353 123.901558,241.821671 124.060165,241.850876 
	C124.041458,241.929764 124.019821,242.090469 124.019821,242.090469 
z"/>
<path fill="#FF4A4A" opacity="1.000000" stroke="none" 
	d="
M123.534515,91.477203 
	C123.996017,116.265190 124.008705,140.925278 124.019470,166.019318 
	C124.017532,166.453278 124.032753,166.784927 123.549866,166.810089 
	C98.100128,166.799576 73.133263,166.763901 48.166401,166.728210 
	C48.108219,142.159973 48.050037,117.591736 47.968395,92.561951 
	C50.542713,91.823708 53.138260,91.334908 55.738659,91.307602 
	C66.194084,91.197823 76.651024,91.230820 87.570885,91.112167 
	C99.718147,91.125282 111.401932,91.237289 123.534515,91.477203 
z"/>
<path fill="#F7F9FA" opacity="1.000000" stroke="none" 
	d="
M48.089783,167.211823 
	C73.133263,166.763901 98.100128,166.799576 123.511063,166.971497 
	C123.969849,181.703827 123.984558,196.299911 123.992233,211.448883 
	C123.985191,212.001740 124.069519,212.175369 123.609589,212.056305 
	C98.444084,211.973740 73.738503,212.010223 48.826012,211.950684 
	C48.619102,211.854675 48.169418,211.777786 48.169418,211.777786 
	C48.117332,197.083664 48.065250,182.389557 48.089783,167.211823 
z"/>
<path fill="#64F4E1" opacity="1.000000" stroke="none" 
	d="
M48.093925,212.258270 
	C48.169418,211.777786 48.619102,211.854675 48.816330,212.416199 
	C49.042332,222.595474 49.071102,232.213242 49.099876,241.831009 
	C49.099876,241.831009 48.642872,241.960266 48.405796,241.973511 
	C48.118626,232.237411 48.068531,222.488098 48.093925,212.258270 
z"/>
<path fill="#64F4E1" opacity="1.000000" stroke="none" 
	d="
M48.092022,272.464417 
	C48.166706,272.001831 48.627743,272.027924 48.855156,272.297546 
	C49.082569,272.567139 49.147274,272.986359 49.105621,273.454224 
	C49.056168,283.261810 49.048370,292.601593 49.040577,301.941345 
	C49.040577,301.941345 48.620777,302.122559 48.394722,302.157349 
	C48.118221,292.437103 48.067780,282.682068 48.092022,272.464417 
z"/>
<path fill="#F7F9FA" opacity="1.000000" stroke="none" 
	d="
M375.043762,342.374207 
	C370.211975,342.479797 365.422272,342.479797 360.075073,342.479797 
	C360.075073,332.212341 360.075073,322.503937 360.075073,312.229675 
	C349.830536,312.229675 340.131622,312.229675 329.907440,312.229675 
	C329.907440,302.414185 329.907440,293.168671 330.162659,283.350250 
	C330.636261,282.609802 330.830261,282.417664 330.999908,282.200897 
	C340.023376,282.139343 349.046814,282.077789 358.790619,281.953186 
	C359.605957,281.592682 359.700989,281.295258 359.796021,280.997833 
	C359.796021,271.544891 359.796021,262.091949 359.796021,251.974060 
	C364.876099,251.974060 369.470856,251.974060 374.524445,251.908295 
	C374.983276,251.842514 375.049835,251.980316 375.024658,252.515610 
	C375.026489,282.714355 375.053528,312.377838 375.080566,342.041290 
	C375.080566,342.041290 375.085815,342.268585 375.043762,342.374207 
z"/>
<path fill="#FE5B5C" opacity="1.000000" stroke="none" 
	d="
M359.642944,281.123901 
	C359.700989,281.295258 359.605957,281.592682 359.253998,281.879608 
	C359.132477,281.639771 359.296753,281.433411 359.642944,281.123901 
z"/>
<path fill="#F8E9E9" opacity="1.000000" stroke="none" 
	d="
M330.738342,282.171295 
	C330.830261,282.417664 330.636261,282.609802 330.244995,282.887756 
	C330.206970,282.712708 330.341888,282.427216 330.738342,282.171295 
z"/>
<path fill="#DCEAEC" opacity="1.000000" stroke="none" 
	d="
M375.534485,342.126099 
	C375.053528,312.377838 375.026489,282.714355 375.012695,252.591187 
	C379.817963,252.131485 384.609985,252.131485 389.872375,252.131485 
	C389.872375,262.015991 389.872375,271.735748 389.872375,282.074646 
	C399.580933,282.074646 408.827332,282.074646 418.665283,282.293457 
	C419.441193,282.709167 419.651245,282.873169 419.887024,283.004242 
	C419.887024,292.462677 419.887024,301.921112 419.887024,311.904724 
	C410.153046,311.904724 400.442383,311.904724 390.217957,311.904724 
	C390.217957,322.120544 390.217957,331.834686 390.217957,342.210907 
	C385.140991,342.210907 380.564697,342.210907 375.534485,342.126099 
z"/>
<path fill="#D9D4DD" opacity="1.000000" stroke="none" 
	d="
M419.908813,282.739105 
	C419.651245,282.873169 419.441193,282.709167 419.130371,282.356628 
	C419.312805,282.291992 419.621735,282.382996 419.908813,282.739105 
z"/>
<path fill="#01B6BC" opacity="1.000000" stroke="none" 
	d="
M123.993591,211.905594 
	C128.774734,211.809448 133.547485,211.809448 138.666901,211.809448 
	C138.666901,221.977417 138.666901,231.640808 138.666901,241.957932 
	C134.077789,241.957932 129.507507,241.957932 124.478516,242.024200 
	C124.019821,242.090469 124.041458,241.929764 124.048027,241.640381 
	C124.054596,241.350983 123.984718,240.935089 124.002808,240.470764 
	C124.037109,230.729431 124.053314,221.452393 124.069519,212.175369 
	C124.069519,212.175369 123.985191,212.001740 123.993591,211.905594 
z"/>
<path fill="#00EECF" opacity="1.000000" stroke="none" 
	d="
M123.609589,212.056305 
	C124.053314,221.452393 124.037109,230.729431 123.826767,240.602478 
	C123.401863,241.379776 123.192932,241.583450 123.005836,241.809509 
	C98.676735,241.853470 74.347626,241.897430 49.559196,241.886200 
	C49.071102,232.213242 49.042332,222.595474 49.023239,212.512207 
	C73.738503,212.010223 98.444084,211.973740 123.609589,212.056305 
z"/>
<path fill="#00EECF" opacity="1.000000" stroke="none" 
	d="
M49.502541,302.007385 
	C49.048370,292.601593 49.056168,283.261810 49.260124,273.335876 
	C49.656818,272.581177 49.836288,272.392548 49.994698,272.183868 
	C69.025032,272.144440 88.055367,272.104980 107.658585,272.288269 
	C108.391792,272.698883 108.575867,272.859528 108.783691,272.992981 
	C108.832924,282.022980 108.882149,291.052979 108.716209,300.680084 
	C108.307411,301.463440 108.141357,301.671692 108.002869,301.901886 
	C88.656746,301.959076 69.310623,302.016235 49.502541,302.007385 
z"/>
<path fill="#0FEFD2" opacity="1.000000" stroke="none" 
	d="
M49.767113,272.120728 
	C49.836288,272.392548 49.656818,272.581177 49.301777,272.868042 
	C49.147274,272.986359 49.082569,272.567139 49.078758,272.355072 
	C49.074951,272.143005 49.539528,272.057556 49.767113,272.120728 
z"/>
<path fill="#0FEFD2" opacity="1.000000" stroke="none" 
	d="
M108.808441,272.752869 
	C108.575867,272.859528 108.391792,272.698883 108.122879,272.362732 
	C108.382011,272.053772 108.654976,272.153198 108.808441,272.752869 
z"/>
<path fill="#0FEFD2" opacity="1.000000" stroke="none" 
	d="
M108.261841,301.913208 
	C108.141357,301.671692 108.307411,301.463440 108.652054,301.145752 
	C108.708977,301.317719 108.614899,301.621124 108.261841,301.913208 
z"/>
<path fill="#0FEFD2" opacity="1.000000" stroke="none" 
	d="
M123.276375,241.865280 
	C123.192932,241.583450 123.401863,241.379776 123.808670,241.066803 
	C123.984718,240.935089 124.054596,241.350983 124.066734,241.561493 
	C123.901558,241.821671 123.724236,241.871353 123.276375,241.865280 
z"/>
</svg>