<svg version="1.1" id="Layer_1" xmlns="http://www.w3.org/2000/svg" xmlns:xlink="http://www.w3.org/1999/xlink" x="0px" y="0px"
	 width="100%" viewBox="0 0 512 512" enable-background="new 0 0 512 512" xml:space="preserve">
<path fill="#FF2147" opacity="1.000000" stroke="none" 
	d="
M289.000000,513.000000 
	C267.979095,513.000000 246.958206,513.000000 225.704102,512.615723 
	C224.792557,511.831116 224.159790,511.218597 223.429214,511.061798 
	C209.285660,508.025330 194.964859,505.656738 181.019623,501.893982 
	C163.209259,497.088287 146.499054,489.387207 130.450302,480.199707 
	C113.759338,470.644531 98.107170,459.686615 84.138176,446.498688 
	C76.182823,438.988159 68.708977,430.934601 61.385139,422.795471 
	C48.879078,408.897278 38.660126,393.336151 30.023802,376.811310 
	C15.877161,349.742981 6.179570,321.207092 2.903039,290.672791 
	C2.836665,290.054230 1.659138,289.554932 1.000001,289.000000 
	C1.000000,267.645782 1.000000,246.291550 1.359064,224.765289 
	C2.803949,219.569626 4.026403,214.571075 4.952828,209.518234 
	C9.980523,182.096466 19.322405,156.286911 32.949814,131.930466 
	C47.958294,105.105621 67.269951,81.950073 90.516602,61.928787 
	C109.568855,45.519943 130.509888,32.156178 153.553589,22.123768 
	C175.734055,12.467168 198.701614,5.597101 222.833588,2.918274 
	C223.617050,2.831305 224.280579,1.663805 225.000000,1.000003 
	C246.020889,1.000000 267.041779,1.000000 288.297546,1.385741 
	C289.210968,2.170867 289.844177,2.781513 290.574799,2.938402 
	C304.712158,5.974124 319.027710,8.339550 332.965576,12.105052 
	C350.776642,16.916941 367.490753,24.595922 383.558990,33.776470 
	C399.381500,42.816578 414.490692,52.938850 427.617706,65.450356 
	C439.677063,76.944252 450.974274,89.378540 461.514404,102.290627 
	C475.185333,119.038048 485.703125,137.929260 493.846497,157.946106 
	C502.390869,178.948441 509.008331,200.564026 511.098694,223.329697 
	C511.154663,223.939529 512.340881,224.445572 513.000000,225.000000 
	C513.000000,246.020889 513.000000,267.041779 512.614990,288.296448 
	C511.823273,289.375153 511.230438,290.179779 511.037567,291.070953 
	C508.047424,304.886810 505.654572,318.858948 502.026093,332.503052 
	C497.067169,351.150146 489.043182,368.626160 479.287231,385.280212 
	C469.831757,401.421295 459.142273,416.694641 446.174133,430.208221 
	C438.711823,437.984406 430.828369,445.383667 422.815277,452.598053 
	C408.920654,465.107788 393.359436,475.325531 376.839813,483.963440 
	C349.765503,498.120270 321.215668,507.816803 290.670807,511.096924 
	C290.052856,511.163300 289.554260,512.340881 289.000000,513.000000 
M141.548798,224.075989 
	C140.382736,224.076065 139.216660,224.074173 138.050598,224.076523 
	C124.210381,224.104492 117.019035,231.209717 117.000137,244.891388 
	C116.989098,252.889267 116.991280,260.887177 116.999626,268.885071 
	C117.014038,282.689941 124.146149,289.909637 137.840500,289.918671 
	C164.666763,289.936340 191.493057,289.923981 218.319336,289.924042 
	C220.098526,289.924042 221.877716,289.924042 224.072739,289.924042 
	C224.072739,292.249023 224.072708,294.042480 224.072739,295.835938 
	C224.073044,322.995453 224.035706,350.155090 224.090866,377.314484 
	C224.115402,389.393494 231.708511,396.924164 243.771515,396.992584 
	C252.102402,397.039825 260.433746,397.009064 268.764893,397.000336 
	C282.825562,396.985565 289.917053,389.882202 289.923615,375.766998 
	C289.936035,348.940735 289.927277,322.114441 289.927307,295.288177 
	C289.927307,293.546783 289.927307,291.805389 289.927307,289.924042 
	C292.568726,289.924042 294.398590,289.924042 296.228455,289.924011 
	C323.054718,289.923889 349.881042,289.945923 376.707275,289.913910 
	C389.505951,289.898651 396.945862,282.500885 396.995514,269.824188 
	C397.028137,261.493164 397.014038,253.161911 396.999084,244.830780 
	C396.974945,231.386642 389.745667,224.092087 376.375580,224.082245 
	C349.382690,224.062378 322.389771,224.076111 295.396881,224.075974 
	C293.645142,224.075974 291.893402,224.075958 289.927277,224.075958 
	C289.927277,221.519394 289.927338,219.699829 289.927277,217.880264 
	C289.926727,190.720734 289.979370,163.561066 289.900848,136.401764 
	C289.866821,124.628677 282.202881,117.085182 270.446930,117.009346 
	C261.949493,116.954529 253.451447,116.988548 244.953705,117.000259 
	C231.230667,117.019165 224.084259,124.190163 224.077042,137.989380 
	C224.063004,164.815659 224.072784,191.641937 224.072723,218.468216 
	C224.072723,220.233276 224.072739,221.998337 224.072739,224.075989 
	C196.467957,224.075989 169.501495,224.075989 141.548798,224.075989 
z"/>
<path fill="#000000" opacity="1.000000" stroke="none" 
	d="
M1.000001,289.468658 
	C1.659138,289.554932 2.836665,290.054230 2.903039,290.672791 
	C6.179570,321.207092 15.877161,349.742981 30.023802,376.811310 
	C38.660126,393.336151 48.879078,408.897278 61.385139,422.795471 
	C68.708977,430.934601 76.182823,438.988159 84.138176,446.498688 
	C98.107170,459.686615 113.759338,470.644531 130.450302,480.199707 
	C146.499054,489.387207 163.209259,497.088287 181.019623,501.893982 
	C194.964859,505.656738 209.285660,508.025330 223.429214,511.061798 
	C224.159790,511.218597 224.792557,511.831116 225.235443,512.615723 
	C150.406296,513.000000 75.812599,513.000000 1.000000,513.000000 
	C1.000000,438.645905 1.000000,364.291626 1.000001,289.468658 
z"/>
<path fill="#000000" opacity="1.000000" stroke="none" 
	d="
M513.000000,224.531342 
	C512.340881,224.445572 511.154663,223.939529 511.098694,223.329697 
	C509.008331,200.564026 502.390869,178.948441 493.846497,157.946106 
	C485.703125,137.929260 475.185333,119.038048 461.514404,102.290627 
	C450.974274,89.378540 439.677063,76.944252 427.617706,65.450356 
	C414.490692,52.938850 399.381500,42.816578 383.558990,33.776470 
	C367.490753,24.595922 350.776642,16.916941 332.965576,12.105052 
	C319.027710,8.339550 304.712158,5.974124 290.574799,2.938402 
	C289.844177,2.781513 289.210968,2.170867 288.766205,1.385741 
	C363.593719,1.000000 438.187408,1.000000 513.000000,1.000000 
	C513.000000,75.354088 513.000000,149.708389 513.000000,224.531342 
z"/>
<path fill="#000000" opacity="1.000000" stroke="none" 
	d="
M289.468658,513.000000 
	C289.554260,512.340881 290.052856,511.163300 290.670807,511.096924 
	C321.215668,507.816803 349.765503,498.120270 376.839813,483.963440 
	C393.359436,475.325531 408.920654,465.107788 422.815277,452.598053 
	C430.828369,445.383667 438.711823,437.984406 446.174133,430.208221 
	C459.142273,416.694641 469.831757,401.421295 479.287231,385.280212 
	C489.043182,368.626160 497.067169,351.150146 502.026093,332.503052 
	C505.654572,318.858948 508.047424,304.886810 511.037567,291.070953 
	C511.230438,290.179779 511.823273,289.375153 512.614990,288.765137 
	C513.000000,363.593719 513.000000,438.187408 513.000000,513.000000 
	C438.645905,513.000000 364.291626,513.000000 289.468658,513.000000 
z"/>
<path fill="#000000" opacity="1.000000" stroke="none" 
	d="
M224.531342,1.000003 
	C224.280579,1.663805 223.617050,2.831305 222.833588,2.918274 
	C198.701614,5.597101 175.734055,12.467168 153.553589,22.123768 
	C130.509888,32.156178 109.568855,45.519943 90.516602,61.928787 
	C67.269951,81.950073 47.958294,105.105621 32.949814,131.930466 
	C19.322405,156.286911 9.980523,182.096466 4.952828,209.518234 
	C4.026403,214.571075 2.803949,219.569626 1.359064,224.296631 
	C1.000000,149.739456 1.000000,75.478920 1.000000,1.000000 
	C75.354088,1.000000 149.708389,1.000000 224.531342,1.000003 
z"/>
<path fill="#FFFEFE" opacity="1.000000" stroke="none" 
	d="
M142.041916,224.075989 
	C169.501495,224.075989 196.467957,224.075989 224.072739,224.075989 
	C224.072739,221.998337 224.072723,220.233276 224.072723,218.468216 
	C224.072784,191.641937 224.063004,164.815659 224.077042,137.989380 
	C224.084259,124.190163 231.230667,117.019165 244.953705,117.000259 
	C253.451447,116.988548 261.949493,116.954529 270.446930,117.009346 
	C282.202881,117.085182 289.866821,124.628677 289.900848,136.401764 
	C289.979370,163.561066 289.926727,190.720734 289.927277,217.880264 
	C289.927338,219.699829 289.927277,221.519394 289.927277,224.075958 
	C291.893402,224.075958 293.645142,224.075974 295.396881,224.075974 
	C322.389771,224.076111 349.382690,224.062378 376.375580,224.082245 
	C389.745667,224.092087 396.974945,231.386642 396.999084,244.830780 
	C397.014038,253.161911 397.028137,261.493164 396.995514,269.824188 
	C396.945862,282.500885 389.505951,289.898651 376.707275,289.913910 
	C349.881042,289.945923 323.054718,289.923889 296.228455,289.924011 
	C294.398590,289.924042 292.568726,289.924042 289.927307,289.924042 
	C289.927307,291.805389 289.927307,293.546783 289.927307,295.288177 
	C289.927277,322.114441 289.936035,348.940735 289.923615,375.766998 
	C289.917053,389.882202 282.825562,396.985565 268.764893,397.000336 
	C260.433746,397.009064 252.102402,397.039825 243.771515,396.992584 
	C231.708511,396.924164 224.115402,389.393494 224.090866,377.314484 
	C224.035706,350.155090 224.073044,322.995453 224.072739,295.835938 
	C224.072708,294.042480 224.072739,292.249023 224.072739,289.924042 
	C221.877716,289.924042 220.098526,289.924042 218.319336,289.924042 
	C191.493057,289.923981 164.666763,289.936340 137.840500,289.918671 
	C124.146149,289.909637 117.014038,282.689941 116.999626,268.885071 
	C116.991280,260.887177 116.989098,252.889267 117.000137,244.891388 
	C117.019035,231.209717 124.210381,224.104492 138.050598,224.076523 
	C139.216660,224.074173 140.382736,224.076065 142.041916,224.075989 
z"/>
</svg>